<?xml version="1.0" encoding="utf-8" standalone="no"?>
<!DOCTYPE svg PUBLIC "-//W3C//DTD SVG 1.1//EN"
  "http://www.w3.org/Graphics/SVG/1.1/DTD/svg11.dtd">
<svg xmlns:xlink="http://www.w3.org/1999/xlink" width="500.40625pt" height="389.139437pt" viewBox="0 0 500.40625 389.139437" xmlns="http://www.w3.org/2000/svg" version="1.1">
 <metadata>
  <rdf:RDF xmlns:dc="http://purl.org/dc/elements/1.1/" xmlns:cc="http://creativecommons.org/ns#" xmlns:rdf="http://www.w3.org/1999/02/22-rdf-syntax-ns#">
   <cc:Work>
    <dc:type rdf:resource="http://purl.org/dc/dcmitype/StillImage"/>
    <dc:date>2024-07-23T14:55:25.808344</dc:date>
    <dc:format>image/svg+xml</dc:format>
    <dc:creator>
     <cc:Agent>
      <dc:title>Matplotlib v3.9.1, https://matplotlib.org/</dc:title>
     </cc:Agent>
    </dc:creator>
   </cc:Work>
  </rdf:RDF>
 </metadata>
 <defs>
  <style type="text/css">*{stroke-linejoin: round; stroke-linecap: butt}</style>
 </defs>
 <g id="figure_1">
  <g id="patch_1">
   <path d="M 0 389.139437 
L 500.40625 389.139437 
L 500.40625 -0 
L 0 -0 
z
" style="fill: #ffffff"/>
  </g>
  <g id="axes_1">
   <g id="patch_2">
    <path d="M 46.80625 299.135625 
L 493.20625 299.135625 
L 493.20625 21.935625 
L 46.80625 21.935625 
z
" style="fill: #ffffff"/>
   </g>
   <g id="patch_3">
    <path d="M 67.097159 299.135625 
L 86.421834 299.135625 
L 86.421834 266.916607 
L 67.097159 266.916607 
z
" clip-path="url(#p5da91c568a)" style="fill: #1f77b4"/>
   </g>
   <g id="patch_4">
    <path d="M 105.74651 299.135625 
L 125.071185 299.135625 
L 125.071185 218.877032 
L 105.74651 218.877032 
z
" clip-path="url(#p5da91c568a)" style="fill: #1f77b4"/>
   </g>
   <g id="patch_5">
    <path d="M 144.39586 299.135625 
L 163.720536 299.135625 
L 163.720536 255.913275 
L 144.39586 255.913275 
z
" clip-path="url(#p5da91c568a)" style="fill: #1f77b4"/>
   </g>
   <g id="patch_6">
    <path d="M 183.045211 299.135625 
L 202.369886 299.135625 
L 202.369886 268.412481 
L 183.045211 268.412481 
z
" clip-path="url(#p5da91c568a)" style="fill: #1f77b4"/>
   </g>
   <g id="patch_7">
    <path d="M 221.694562 299.135625 
L 241.019237 299.135625 
L 241.019237 275.157657 
L 221.694562 275.157657 
z
" clip-path="url(#p5da91c568a)" style="fill: #1f77b4"/>
   </g>
   <g id="patch_8">
    <path d="M 260.343912 299.135625 
L 279.668588 299.135625 
L 279.668588 42.475959 
L 260.343912 42.475959 
z
" clip-path="url(#p5da91c568a)" style="fill: #1f77b4"/>
   </g>
   <g id="patch_9">
    <path d="M 298.993263 299.135625 
L 318.317938 299.135625 
L 318.317938 172.279621 
L 298.993263 172.279621 
z
" clip-path="url(#p5da91c568a)" style="fill: #1f77b4"/>
   </g>
   <g id="patch_10">
    <path d="M 337.642614 299.135625 
L 356.967289 299.135625 
L 356.967289 247.221976 
L 337.642614 247.221976 
z
" clip-path="url(#p5da91c568a)" style="fill: #1f77b4"/>
   </g>
   <g id="patch_11">
    <path d="M 376.291964 299.135625 
L 395.61664 299.135625 
L 395.61664 244.67102 
L 376.291964 244.67102 
z
" clip-path="url(#p5da91c568a)" style="fill: #1f77b4"/>
   </g>
   <g id="patch_12">
    <path d="M 414.941315 299.135625 
L 434.26599 299.135625 
L 434.26599 196.154713 
L 414.941315 196.154713 
z
" clip-path="url(#p5da91c568a)" style="fill: #1f77b4"/>
   </g>
   <g id="patch_13">
    <path d="M 453.590666 299.135625 
L 472.915341 299.135625 
L 472.915341 268.642002 
L 453.590666 268.642002 
z
" clip-path="url(#p5da91c568a)" style="fill: #1f77b4"/>
   </g>
   <g id="matplotlib.axis_1">
    <g id="xtick_1">
     <g id="line2d_1">
      <defs>
       <path id="mde1a62fb06" d="M 0 0 
L 0 3.5 
" style="stroke: #000000; stroke-width: 0.8"/>
      </defs>
      <g>
       <use xlink:href="#mde1a62fb06" x="76.759497" y="299.135625" style="stroke: #000000; stroke-width: 0.8"/>
      </g>
     </g>
     <g id="text_1">
      <!-- CDS -->
      <g transform="translate(60.424225 326.12686) rotate(-45) scale(0.1 -0.1)">
       <defs>
        <path id="ArialMT-43" d="M 3763 1606 
L 4369 1453 
Q 4178 706 3683 314 
Q 3188 -78 2472 -78 
Q 1731 -78 1267 223 
Q 803 525 561 1097 
Q 319 1669 319 2325 
Q 319 3041 592 3573 
Q 866 4106 1370 4382 
Q 1875 4659 2481 4659 
Q 3169 4659 3637 4309 
Q 4106 3959 4291 3325 
L 3694 3184 
Q 3534 3684 3231 3912 
Q 2928 4141 2469 4141 
Q 1941 4141 1586 3887 
Q 1231 3634 1087 3207 
Q 944 2781 944 2328 
Q 944 1744 1114 1308 
Q 1284 872 1643 656 
Q 2003 441 2422 441 
Q 2931 441 3284 734 
Q 3638 1028 3763 1606 
z
" transform="scale(0.015625)"/>
        <path id="ArialMT-44" d="M 494 0 
L 494 4581 
L 2072 4581 
Q 2606 4581 2888 4516 
Q 3281 4425 3559 4188 
Q 3922 3881 4101 3404 
Q 4281 2928 4281 2316 
Q 4281 1794 4159 1391 
Q 4038 988 3847 723 
Q 3656 459 3429 307 
Q 3203 156 2883 78 
Q 2563 0 2147 0 
L 494 0 
z
M 1100 541 
L 2078 541 
Q 2531 541 2789 625 
Q 3047 709 3200 863 
Q 3416 1078 3536 1442 
Q 3656 1806 3656 2325 
Q 3656 3044 3420 3430 
Q 3184 3816 2847 3947 
Q 2603 4041 2063 4041 
L 1100 4041 
L 1100 541 
z
" transform="scale(0.015625)"/>
        <path id="ArialMT-53" d="M 288 1472 
L 859 1522 
Q 900 1178 1048 958 
Q 1197 738 1509 602 
Q 1822 466 2213 466 
Q 2559 466 2825 569 
Q 3091 672 3220 851 
Q 3350 1031 3350 1244 
Q 3350 1459 3225 1620 
Q 3100 1781 2813 1891 
Q 2628 1963 1997 2114 
Q 1366 2266 1113 2400 
Q 784 2572 623 2826 
Q 463 3081 463 3397 
Q 463 3744 659 4045 
Q 856 4347 1234 4503 
Q 1613 4659 2075 4659 
Q 2584 4659 2973 4495 
Q 3363 4331 3572 4012 
Q 3781 3694 3797 3291 
L 3216 3247 
Q 3169 3681 2898 3903 
Q 2628 4125 2100 4125 
Q 1550 4125 1298 3923 
Q 1047 3722 1047 3438 
Q 1047 3191 1225 3031 
Q 1400 2872 2139 2705 
Q 2878 2538 3153 2413 
Q 3553 2228 3743 1945 
Q 3934 1663 3934 1294 
Q 3934 928 3725 604 
Q 3516 281 3123 101 
Q 2731 -78 2241 -78 
Q 1619 -78 1198 103 
Q 778 284 539 648 
Q 300 1013 288 1472 
z
" transform="scale(0.015625)"/>
       </defs>
       <use xlink:href="#ArialMT-43"/>
       <use xlink:href="#ArialMT-44" x="72.216797"/>
       <use xlink:href="#ArialMT-53" x="144.433594"/>
      </g>
     </g>
    </g>
    <g id="xtick_2">
     <g id="line2d_2">
      <g>
       <use xlink:href="#mde1a62fb06" x="115.408847" y="299.135625" style="stroke: #000000; stroke-width: 0.8"/>
      </g>
     </g>
     <g id="text_2">
      <!-- promoter -->
      <g transform="translate(85.711467 339.488968) rotate(-45) scale(0.1 -0.1)">
       <defs>
        <path id="ArialMT-70" d="M 422 -1272 
L 422 3319 
L 934 3319 
L 934 2888 
Q 1116 3141 1344 3267 
Q 1572 3394 1897 3394 
Q 2322 3394 2647 3175 
Q 2972 2956 3137 2557 
Q 3303 2159 3303 1684 
Q 3303 1175 3120 767 
Q 2938 359 2589 142 
Q 2241 -75 1856 -75 
Q 1575 -75 1351 44 
Q 1128 163 984 344 
L 984 -1272 
L 422 -1272 
z
M 931 1641 
Q 931 1000 1190 694 
Q 1450 388 1819 388 
Q 2194 388 2461 705 
Q 2728 1022 2728 1688 
Q 2728 2322 2467 2637 
Q 2206 2953 1844 2953 
Q 1484 2953 1207 2617 
Q 931 2281 931 1641 
z
" transform="scale(0.015625)"/>
        <path id="ArialMT-72" d="M 416 0 
L 416 3319 
L 922 3319 
L 922 2816 
Q 1116 3169 1280 3281 
Q 1444 3394 1641 3394 
Q 1925 3394 2219 3213 
L 2025 2691 
Q 1819 2813 1613 2813 
Q 1428 2813 1281 2702 
Q 1134 2591 1072 2394 
Q 978 2094 978 1738 
L 978 0 
L 416 0 
z
" transform="scale(0.015625)"/>
        <path id="ArialMT-6f" d="M 213 1659 
Q 213 2581 725 3025 
Q 1153 3394 1769 3394 
Q 2453 3394 2887 2945 
Q 3322 2497 3322 1706 
Q 3322 1066 3130 698 
Q 2938 331 2570 128 
Q 2203 -75 1769 -75 
Q 1072 -75 642 372 
Q 213 819 213 1659 
z
M 791 1659 
Q 791 1022 1069 705 
Q 1347 388 1769 388 
Q 2188 388 2466 706 
Q 2744 1025 2744 1678 
Q 2744 2294 2464 2611 
Q 2184 2928 1769 2928 
Q 1347 2928 1069 2612 
Q 791 2297 791 1659 
z
" transform="scale(0.015625)"/>
        <path id="ArialMT-6d" d="M 422 0 
L 422 3319 
L 925 3319 
L 925 2853 
Q 1081 3097 1340 3245 
Q 1600 3394 1931 3394 
Q 2300 3394 2536 3241 
Q 2772 3088 2869 2813 
Q 3263 3394 3894 3394 
Q 4388 3394 4653 3120 
Q 4919 2847 4919 2278 
L 4919 0 
L 4359 0 
L 4359 2091 
Q 4359 2428 4304 2576 
Q 4250 2725 4106 2815 
Q 3963 2906 3769 2906 
Q 3419 2906 3187 2673 
Q 2956 2441 2956 1928 
L 2956 0 
L 2394 0 
L 2394 2156 
Q 2394 2531 2256 2718 
Q 2119 2906 1806 2906 
Q 1569 2906 1367 2781 
Q 1166 2656 1075 2415 
Q 984 2175 984 1722 
L 984 0 
L 422 0 
z
" transform="scale(0.015625)"/>
        <path id="ArialMT-74" d="M 1650 503 
L 1731 6 
Q 1494 -44 1306 -44 
Q 1000 -44 831 53 
Q 663 150 594 308 
Q 525 466 525 972 
L 525 2881 
L 113 2881 
L 113 3319 
L 525 3319 
L 525 4141 
L 1084 4478 
L 1084 3319 
L 1650 3319 
L 1650 2881 
L 1084 2881 
L 1084 941 
Q 1084 700 1114 631 
Q 1144 563 1211 522 
Q 1278 481 1403 481 
Q 1497 481 1650 503 
z
" transform="scale(0.015625)"/>
        <path id="ArialMT-65" d="M 2694 1069 
L 3275 997 
Q 3138 488 2766 206 
Q 2394 -75 1816 -75 
Q 1088 -75 661 373 
Q 234 822 234 1631 
Q 234 2469 665 2931 
Q 1097 3394 1784 3394 
Q 2450 3394 2872 2941 
Q 3294 2488 3294 1666 
Q 3294 1616 3291 1516 
L 816 1516 
Q 847 969 1125 678 
Q 1403 388 1819 388 
Q 2128 388 2347 550 
Q 2566 713 2694 1069 
z
M 847 1978 
L 2700 1978 
Q 2663 2397 2488 2606 
Q 2219 2931 1791 2931 
Q 1403 2931 1139 2672 
Q 875 2413 847 1978 
z
" transform="scale(0.015625)"/>
       </defs>
       <use xlink:href="#ArialMT-70"/>
       <use xlink:href="#ArialMT-72" x="55.615234"/>
       <use xlink:href="#ArialMT-6f" x="88.916016"/>
       <use xlink:href="#ArialMT-6d" x="144.53125"/>
       <use xlink:href="#ArialMT-6f" x="227.832031"/>
       <use xlink:href="#ArialMT-74" x="283.447266"/>
       <use xlink:href="#ArialMT-65" x="311.230469"/>
       <use xlink:href="#ArialMT-72" x="366.845703"/>
      </g>
     </g>
    </g>
    <g id="xtick_3">
     <g id="line2d_3">
      <g>
       <use xlink:href="#mde1a62fb06" x="154.058198" y="299.135625" style="stroke: #000000; stroke-width: 0.8"/>
      </g>
     </g>
     <g id="text_3">
      <!-- exon -->
      <g transform="translate(137.32076 326.529027) rotate(-45) scale(0.1 -0.1)">
       <defs>
        <path id="ArialMT-78" d="M 47 0 
L 1259 1725 
L 138 3319 
L 841 3319 
L 1350 2541 
Q 1494 2319 1581 2169 
Q 1719 2375 1834 2534 
L 2394 3319 
L 3066 3319 
L 1919 1756 
L 3153 0 
L 2463 0 
L 1781 1031 
L 1600 1309 
L 728 0 
L 47 0 
z
" transform="scale(0.015625)"/>
        <path id="ArialMT-6e" d="M 422 0 
L 422 3319 
L 928 3319 
L 928 2847 
Q 1294 3394 1984 3394 
Q 2284 3394 2536 3286 
Q 2788 3178 2913 3003 
Q 3038 2828 3088 2588 
Q 3119 2431 3119 2041 
L 3119 0 
L 2556 0 
L 2556 2019 
Q 2556 2363 2490 2533 
Q 2425 2703 2258 2804 
Q 2091 2906 1866 2906 
Q 1506 2906 1245 2678 
Q 984 2450 984 1813 
L 984 0 
L 422 0 
z
" transform="scale(0.015625)"/>
       </defs>
       <use xlink:href="#ArialMT-65"/>
       <use xlink:href="#ArialMT-78" x="55.615234"/>
       <use xlink:href="#ArialMT-6f" x="105.615234"/>
       <use xlink:href="#ArialMT-6e" x="161.230469"/>
      </g>
     </g>
    </g>
    <g id="xtick_4">
     <g id="line2d_4">
      <g>
       <use xlink:href="#mde1a62fb06" x="192.707549" y="299.135625" style="stroke: #000000; stroke-width: 0.8"/>
      </g>
     </g>
     <g id="text_4">
      <!-- 5' UTR -->
      <g transform="translate(140.222548 362.362768) rotate(-45) scale(0.1 -0.1)">
       <defs>
        <path id="ArialMT-66" d="M 556 0 
L 556 2881 
L 59 2881 
L 59 3319 
L 556 3319 
L 556 3672 
Q 556 4006 616 4169 
Q 697 4388 901 4523 
Q 1106 4659 1475 4659 
Q 1713 4659 2000 4603 
L 1916 4113 
Q 1741 4144 1584 4144 
Q 1328 4144 1222 4034 
Q 1116 3925 1116 3625 
L 1116 3319 
L 1763 3319 
L 1763 2881 
L 1116 2881 
L 1116 0 
L 556 0 
z
" transform="scale(0.015625)"/>
        <path id="ArialMT-69" d="M 425 3934 
L 425 4581 
L 988 4581 
L 988 3934 
L 425 3934 
z
M 425 0 
L 425 3319 
L 988 3319 
L 988 0 
L 425 0 
z
" transform="scale(0.015625)"/>
        <path id="ArialMT-76" d="M 1344 0 
L 81 3319 
L 675 3319 
L 1388 1331 
Q 1503 1009 1600 663 
Q 1675 925 1809 1294 
L 2547 3319 
L 3125 3319 
L 1869 0 
L 1344 0 
z
" transform="scale(0.015625)"/>
        <path id="ArialMT-5f" d="M -97 -1272 
L -97 -866 
L 3631 -866 
L 3631 -1272 
L -97 -1272 
z
" transform="scale(0.015625)"/>
        <path id="ArialMT-55" d="M 3500 4581 
L 4106 4581 
L 4106 1934 
Q 4106 1244 3950 837 
Q 3794 431 3386 176 
Q 2978 -78 2316 -78 
Q 1672 -78 1262 144 
Q 853 366 678 786 
Q 503 1206 503 1934 
L 503 4581 
L 1109 4581 
L 1109 1938 
Q 1109 1341 1220 1058 
Q 1331 775 1601 622 
Q 1872 469 2263 469 
Q 2931 469 3215 772 
Q 3500 1075 3500 1938 
L 3500 4581 
z
" transform="scale(0.015625)"/>
        <path id="ArialMT-54" d="M 1659 0 
L 1659 4041 
L 150 4041 
L 150 4581 
L 3781 4581 
L 3781 4041 
L 2266 4041 
L 2266 0 
L 1659 0 
z
" transform="scale(0.015625)"/>
        <path id="ArialMT-52" d="M 503 0 
L 503 4581 
L 2534 4581 
Q 3147 4581 3465 4457 
Q 3784 4334 3975 4021 
Q 4166 3709 4166 3331 
Q 4166 2844 3850 2509 
Q 3534 2175 2875 2084 
Q 3116 1969 3241 1856 
Q 3506 1613 3744 1247 
L 4541 0 
L 3778 0 
L 3172 953 
Q 2906 1366 2734 1584 
Q 2563 1803 2427 1890 
Q 2291 1978 2150 2013 
Q 2047 2034 1813 2034 
L 1109 2034 
L 1109 0 
L 503 0 
z
M 1109 2559 
L 2413 2559 
Q 2828 2559 3062 2645 
Q 3297 2731 3419 2920 
Q 3541 3109 3541 3331 
Q 3541 3656 3305 3865 
Q 3069 4075 2559 4075 
L 1109 4075 
L 1109 2559 
z
" transform="scale(0.015625)"/>
       </defs>
       <use xlink:href="#ArialMT-66"/>
       <use xlink:href="#ArialMT-69" x="27.783203"/>
       <use xlink:href="#ArialMT-76" x="50"/>
       <use xlink:href="#ArialMT-65" x="100"/>
       <use xlink:href="#ArialMT-5f" x="155.615234"/>
       <use xlink:href="#ArialMT-70" x="211.230469"/>
       <use xlink:href="#ArialMT-72" x="266.845703"/>
       <use xlink:href="#ArialMT-69" x="300.146484"/>
       <use xlink:href="#ArialMT-6d" x="322.363281"/>
       <use xlink:href="#ArialMT-65" x="405.664062"/>
       <use xlink:href="#ArialMT-5f" x="461.279297"/>
       <use xlink:href="#ArialMT-55" x="516.894531"/>
       <use xlink:href="#ArialMT-54" x="589.111328"/>
       <use xlink:href="#ArialMT-52" x="650.195312"/>
      </g>
     </g>
    </g>
    <g id="xtick_5">
     <g id="line2d_5">
      <g>
       <use xlink:href="#mde1a62fb06" x="231.356899" y="299.135625" style="stroke: #000000; stroke-width: 0.8"/>
      </g>
     </g>
     <g id="text_5">
      <!-- 3' UTR -->
      <g transform="translate(173.759737 367.38875) rotate(-45) scale(0.1 -0.1)">
       <defs>
        <path id="ArialMT-68" d="M 422 0 
L 422 4581 
L 984 4581 
L 984 2938 
Q 1378 3394 1978 3394 
Q 2347 3394 2619 3248 
Q 2891 3103 3008 2847 
Q 3125 2591 3125 2103 
L 3125 0 
L 2563 0 
L 2563 2103 
Q 2563 2525 2380 2717 
Q 2197 2909 1863 2909 
Q 1613 2909 1392 2779 
Q 1172 2650 1078 2428 
Q 984 2206 984 1816 
L 984 0 
L 422 0 
z
" transform="scale(0.015625)"/>
       </defs>
       <use xlink:href="#ArialMT-74"/>
       <use xlink:href="#ArialMT-68" x="27.783203"/>
       <use xlink:href="#ArialMT-72" x="83.398438"/>
       <use xlink:href="#ArialMT-65" x="116.699219"/>
       <use xlink:href="#ArialMT-65" x="172.314453"/>
       <use xlink:href="#ArialMT-5f" x="227.929688"/>
       <use xlink:href="#ArialMT-70" x="283.544922"/>
       <use xlink:href="#ArialMT-72" x="339.160156"/>
       <use xlink:href="#ArialMT-69" x="372.460938"/>
       <use xlink:href="#ArialMT-6d" x="394.677734"/>
       <use xlink:href="#ArialMT-65" x="477.978516"/>
       <use xlink:href="#ArialMT-5f" x="533.59375"/>
       <use xlink:href="#ArialMT-55" x="589.208984"/>
       <use xlink:href="#ArialMT-54" x="661.425781"/>
       <use xlink:href="#ArialMT-52" x="722.509766"/>
      </g>
     </g>
    </g>
    <g id="xtick_6">
     <g id="line2d_6">
      <g>
       <use xlink:href="#mde1a62fb06" x="270.00625" y="299.135625" style="stroke: #000000; stroke-width: 0.8"/>
      </g>
     </g>
     <g id="text_6">
      <!-- intron -->
      <g transform="translate(250.914367 328.883471) rotate(-45) scale(0.1 -0.1)">
       <use xlink:href="#ArialMT-69"/>
       <use xlink:href="#ArialMT-6e" x="22.216797"/>
       <use xlink:href="#ArialMT-74" x="77.832031"/>
       <use xlink:href="#ArialMT-72" x="105.615234"/>
       <use xlink:href="#ArialMT-6f" x="138.916016"/>
       <use xlink:href="#ArialMT-6e" x="194.53125"/>
      </g>
     </g>
    </g>
    <g id="xtick_7">
     <g id="line2d_7">
      <g>
       <use xlink:href="#mde1a62fb06" x="308.655601" y="299.135625" style="stroke: #000000; stroke-width: 0.8"/>
      </g>
     </g>
     <g id="text_7">
      <!-- gene -->
      <g transform="translate(291.438655 326.842805) rotate(-45) scale(0.1 -0.1)">
       <defs>
        <path id="ArialMT-67" d="M 319 -275 
L 866 -356 
Q 900 -609 1056 -725 
Q 1266 -881 1628 -881 
Q 2019 -881 2231 -725 
Q 2444 -569 2519 -288 
Q 2563 -116 2559 434 
Q 2191 0 1641 0 
Q 956 0 581 494 
Q 206 988 206 1678 
Q 206 2153 378 2554 
Q 550 2956 876 3175 
Q 1203 3394 1644 3394 
Q 2231 3394 2613 2919 
L 2613 3319 
L 3131 3319 
L 3131 450 
Q 3131 -325 2973 -648 
Q 2816 -972 2473 -1159 
Q 2131 -1347 1631 -1347 
Q 1038 -1347 672 -1080 
Q 306 -813 319 -275 
z
M 784 1719 
Q 784 1066 1043 766 
Q 1303 466 1694 466 
Q 2081 466 2343 764 
Q 2606 1063 2606 1700 
Q 2606 2309 2336 2618 
Q 2066 2928 1684 2928 
Q 1309 2928 1046 2623 
Q 784 2319 784 1719 
z
" transform="scale(0.015625)"/>
       </defs>
       <use xlink:href="#ArialMT-67"/>
       <use xlink:href="#ArialMT-65" x="55.615234"/>
       <use xlink:href="#ArialMT-6e" x="111.230469"/>
       <use xlink:href="#ArialMT-65" x="166.845703"/>
      </g>
     </g>
    </g>
    <g id="xtick_8">
     <g id="line2d_8">
      <g>
       <use xlink:href="#mde1a62fb06" x="347.304951" y="299.135625" style="stroke: #000000; stroke-width: 0.8"/>
      </g>
     </g>
     <g id="text_8">
      <!-- lincRNA -->
      <g transform="translate(320.359764 336.736776) rotate(-45) scale(0.1 -0.1)">
       <defs>
        <path id="ArialMT-6c" d="M 409 0 
L 409 4581 
L 972 4581 
L 972 0 
L 409 0 
z
" transform="scale(0.015625)"/>
        <path id="ArialMT-63" d="M 2588 1216 
L 3141 1144 
Q 3050 572 2676 248 
Q 2303 -75 1759 -75 
Q 1078 -75 664 370 
Q 250 816 250 1647 
Q 250 2184 428 2587 
Q 606 2991 970 3192 
Q 1334 3394 1763 3394 
Q 2303 3394 2647 3120 
Q 2991 2847 3088 2344 
L 2541 2259 
Q 2463 2594 2264 2762 
Q 2066 2931 1784 2931 
Q 1359 2931 1093 2626 
Q 828 2322 828 1663 
Q 828 994 1084 691 
Q 1341 388 1753 388 
Q 2084 388 2306 591 
Q 2528 794 2588 1216 
z
" transform="scale(0.015625)"/>
        <path id="ArialMT-4e" d="M 488 0 
L 488 4581 
L 1109 4581 
L 3516 984 
L 3516 4581 
L 4097 4581 
L 4097 0 
L 3475 0 
L 1069 3600 
L 1069 0 
L 488 0 
z
" transform="scale(0.015625)"/>
        <path id="ArialMT-41" d="M -9 0 
L 1750 4581 
L 2403 4581 
L 4278 0 
L 3588 0 
L 3053 1388 
L 1138 1388 
L 634 0 
L -9 0 
z
M 1313 1881 
L 2866 1881 
L 2388 3150 
Q 2169 3728 2063 4100 
Q 1975 3659 1816 3225 
L 1313 1881 
z
" transform="scale(0.015625)"/>
       </defs>
       <use xlink:href="#ArialMT-6c"/>
       <use xlink:href="#ArialMT-69" x="22.216797"/>
       <use xlink:href="#ArialMT-6e" x="44.433594"/>
       <use xlink:href="#ArialMT-63" x="100.048828"/>
       <use xlink:href="#ArialMT-52" x="150.048828"/>
       <use xlink:href="#ArialMT-4e" x="222.265625"/>
       <use xlink:href="#ArialMT-41" x="294.482422"/>
      </g>
     </g>
    </g>
    <g id="xtick_9">
     <g id="line2d_9">
      <g>
       <use xlink:href="#mde1a62fb06" x="385.954302" y="299.135625" style="stroke: #000000; stroke-width: 0.8"/>
      </g>
     </g>
     <g id="text_9">
      <!-- miRNA -->
      <g transform="translate(362.157949 333.587941) rotate(-45) scale(0.1 -0.1)">
       <use xlink:href="#ArialMT-6d"/>
       <use xlink:href="#ArialMT-69" x="83.300781"/>
       <use xlink:href="#ArialMT-52" x="105.517578"/>
       <use xlink:href="#ArialMT-4e" x="177.734375"/>
       <use xlink:href="#ArialMT-41" x="249.951172"/>
      </g>
     </g>
    </g>
    <g id="xtick_10">
     <g id="line2d_10">
      <g>
       <use xlink:href="#mde1a62fb06" x="424.603653" y="299.135625" style="stroke: #000000; stroke-width: 0.8"/>
      </g>
     </g>
     <g id="text_10">
      <!-- ncRNA -->
      <g transform="translate(400.800671 333.59457) rotate(-45) scale(0.1 -0.1)">
       <use xlink:href="#ArialMT-6e"/>
       <use xlink:href="#ArialMT-63" x="55.615234"/>
       <use xlink:href="#ArialMT-52" x="105.615234"/>
       <use xlink:href="#ArialMT-4e" x="177.832031"/>
       <use xlink:href="#ArialMT-41" x="250.048828"/>
      </g>
     </g>
    </g>
    <g id="xtick_11">
     <g id="line2d_11">
      <g>
       <use xlink:href="#mde1a62fb06" x="463.253003" y="299.135625" style="stroke: #000000; stroke-width: 0.8"/>
      </g>
     </g>
     <g id="text_11">
      <!-- TSS -->
      <g transform="translate(424.426212 348.621694) rotate(-45) scale(0.1 -0.1)">
       <use xlink:href="#ArialMT-54"/>
       <use xlink:href="#ArialMT-53" x="61.083984"/>
       <use xlink:href="#ArialMT-53" x="127.783203"/>
       <use xlink:href="#ArialMT-5f" x="194.482422"/>
       <use xlink:href="#ArialMT-72" x="250.097656"/>
       <use xlink:href="#ArialMT-65" x="283.398438"/>
       <use xlink:href="#ArialMT-67" x="339.013672"/>
       <use xlink:href="#ArialMT-69" x="394.628906"/>
       <use xlink:href="#ArialMT-6f" x="416.845703"/>
       <use xlink:href="#ArialMT-6e" x="472.460938"/>
      </g>
     </g>
    </g>
    <g id="text_12">
     <!-- Genomic element -->
     <g transform="translate(230.269531 379.951937) scale(0.1 -0.1)">
      <defs>
       <path id="ArialMT-47" d="M 2638 1797 
L 2638 2334 
L 4578 2338 
L 4578 638 
Q 4131 281 3656 101 
Q 3181 -78 2681 -78 
Q 2006 -78 1454 211 
Q 903 500 622 1047 
Q 341 1594 341 2269 
Q 341 2938 620 3517 
Q 900 4097 1425 4378 
Q 1950 4659 2634 4659 
Q 3131 4659 3532 4498 
Q 3934 4338 4162 4050 
Q 4391 3763 4509 3300 
L 3963 3150 
Q 3859 3500 3706 3700 
Q 3553 3900 3268 4020 
Q 2984 4141 2638 4141 
Q 2222 4141 1919 4014 
Q 1616 3888 1430 3681 
Q 1244 3475 1141 3228 
Q 966 2803 966 2306 
Q 966 1694 1177 1281 
Q 1388 869 1791 669 
Q 2194 469 2647 469 
Q 3041 469 3416 620 
Q 3791 772 3984 944 
L 3984 1797 
L 2638 1797 
z
" transform="scale(0.015625)"/>
       <path id="ArialMT-20" transform="scale(0.015625)"/>
       <path id="ArialMT-45" d="M 506 0 
L 506 4581 
L 3819 4581 
L 3819 4041 
L 1113 4041 
L 1113 2638 
L 3647 2638 
L 3647 2100 
L 1113 2100 
L 1113 541 
L 3925 541 
L 3925 0 
L 506 0 
z
" transform="scale(0.015625)"/>
      </defs>
      <use xlink:href="#ArialMT-47"/>
      <use xlink:href="#ArialMT-65" x="77.783203"/>
      <use xlink:href="#ArialMT-6e" x="133.398438"/>
      <use xlink:href="#ArialMT-6f" x="189.013672"/>
      <use xlink:href="#ArialMT-6d" x="244.628906"/>
      <use xlink:href="#ArialMT-69" x="327.929688"/>
      <use xlink:href="#ArialMT-63" x="350.146484"/>
      <use xlink:href="#ArialMT-20" x="400.146484"/>
      <use xlink:href="#ArialMT-45" x="427.929688"/>
      <use xlink:href="#ArialMT-6c" x="494.628906"/>
      <use xlink:href="#ArialMT-65" x="516.845703"/>
      <use xlink:href="#ArialMT-6d" x="572.460938"/>
      <use xlink:href="#ArialMT-65" x="655.761719"/>
      <use xlink:href="#ArialMT-6e" x="711.376953"/>
      <use xlink:href="#ArialMT-74" x="766.992188"/>
     </g>
    </g>
   </g>
   <g id="matplotlib.axis_2">
    <g id="ytick_1">
     <g id="line2d_12">
      <defs>
       <path id="mf17f62731b" d="M 0 0 
L -3.5 0 
" style="stroke: #000000; stroke-width: 0.8"/>
      </defs>
      <g>
       <use xlink:href="#mf17f62731b" x="46.80625" y="299.135625" style="stroke: #000000; stroke-width: 0.8"/>
      </g>
     </g>
     <g id="text_13">
      <!-- 0.00 -->
      <g transform="translate(20.345313 302.714531) scale(0.1 -0.1)">
       <defs>
        <path id="ArialMT-30" d="M 266 2259 
Q 266 3072 433 3567 
Q 600 4063 929 4331 
Q 1259 4600 1759 4600 
Q 2128 4600 2406 4451 
Q 2684 4303 2865 4023 
Q 3047 3744 3150 3342 
Q 3253 2941 3253 2259 
Q 3253 1453 3087 958 
Q 2922 463 2592 192 
Q 2263 -78 1759 -78 
Q 1097 -78 719 397 
Q 266 969 266 2259 
z
M 844 2259 
Q 844 1131 1108 757 
Q 1372 384 1759 384 
Q 2147 384 2411 759 
Q 2675 1134 2675 2259 
Q 2675 3391 2411 3762 
Q 2147 4134 1753 4134 
Q 1366 4134 1134 3806 
Q 844 3388 844 2259 
z
" transform="scale(0.015625)"/>
        <path id="ArialMT-2e" d="M 581 0 
L 581 641 
L 1222 641 
L 1222 0 
L 581 0 
z
" transform="scale(0.015625)"/>
       </defs>
       <use xlink:href="#ArialMT-30"/>
       <use xlink:href="#ArialMT-2e" x="55.615234"/>
       <use xlink:href="#ArialMT-30" x="83.398438"/>
       <use xlink:href="#ArialMT-30" x="139.013672"/>
      </g>
     </g>
    </g>
    <g id="ytick_2">
     <g id="line2d_13">
      <g>
       <use xlink:href="#mf17f62731b" x="46.80625" y="266.442492" style="stroke: #000000; stroke-width: 0.8"/>
      </g>
     </g>
     <g id="text_14">
      <!-- 0.25 -->
      <g transform="translate(20.345313 270.021398) scale(0.1 -0.1)">
       <defs>
        <path id="ArialMT-32" d="M 3222 541 
L 3222 0 
L 194 0 
Q 188 203 259 391 
Q 375 700 629 1000 
Q 884 1300 1366 1694 
Q 2113 2306 2375 2664 
Q 2638 3022 2638 3341 
Q 2638 3675 2398 3904 
Q 2159 4134 1775 4134 
Q 1369 4134 1125 3890 
Q 881 3647 878 3216 
L 300 3275 
Q 359 3922 746 4261 
Q 1134 4600 1788 4600 
Q 2447 4600 2831 4234 
Q 3216 3869 3216 3328 
Q 3216 3053 3103 2787 
Q 2991 2522 2730 2228 
Q 2469 1934 1863 1422 
Q 1356 997 1212 845 
Q 1069 694 975 541 
L 3222 541 
z
" transform="scale(0.015625)"/>
        <path id="ArialMT-35" d="M 266 1200 
L 856 1250 
Q 922 819 1161 601 
Q 1400 384 1738 384 
Q 2144 384 2425 690 
Q 2706 997 2706 1503 
Q 2706 1984 2436 2262 
Q 2166 2541 1728 2541 
Q 1456 2541 1237 2417 
Q 1019 2294 894 2097 
L 366 2166 
L 809 4519 
L 3088 4519 
L 3088 3981 
L 1259 3981 
L 1013 2750 
Q 1425 3038 1878 3038 
Q 2478 3038 2890 2622 
Q 3303 2206 3303 1553 
Q 3303 931 2941 478 
Q 2500 -78 1738 -78 
Q 1113 -78 717 272 
Q 322 622 266 1200 
z
" transform="scale(0.015625)"/>
       </defs>
       <use xlink:href="#ArialMT-30"/>
       <use xlink:href="#ArialMT-2e" x="55.615234"/>
       <use xlink:href="#ArialMT-32" x="83.398438"/>
       <use xlink:href="#ArialMT-35" x="139.013672"/>
      </g>
     </g>
    </g>
    <g id="ytick_3">
     <g id="line2d_14">
      <g>
       <use xlink:href="#mf17f62731b" x="46.80625" y="233.749358" style="stroke: #000000; stroke-width: 0.8"/>
      </g>
     </g>
     <g id="text_15">
      <!-- 0.50 -->
      <g transform="translate(20.345313 237.328264) scale(0.1 -0.1)">
       <use xlink:href="#ArialMT-30"/>
       <use xlink:href="#ArialMT-2e" x="55.615234"/>
       <use xlink:href="#ArialMT-35" x="83.398438"/>
       <use xlink:href="#ArialMT-30" x="139.013672"/>
      </g>
     </g>
    </g>
    <g id="ytick_4">
     <g id="line2d_15">
      <g>
       <use xlink:href="#mf17f62731b" x="46.80625" y="201.056225" style="stroke: #000000; stroke-width: 0.8"/>
      </g>
     </g>
     <g id="text_16">
      <!-- 0.75 -->
      <g transform="translate(20.345313 204.635131) scale(0.1 -0.1)">
       <defs>
        <path id="ArialMT-37" d="M 303 3981 
L 303 4522 
L 3269 4522 
L 3269 4084 
Q 2831 3619 2401 2847 
Q 1972 2075 1738 1259 
Q 1569 684 1522 0 
L 944 0 
Q 953 541 1156 1306 
Q 1359 2072 1739 2783 
Q 2119 3494 2547 3981 
L 303 3981 
z
" transform="scale(0.015625)"/>
       </defs>
       <use xlink:href="#ArialMT-30"/>
       <use xlink:href="#ArialMT-2e" x="55.615234"/>
       <use xlink:href="#ArialMT-37" x="83.398438"/>
       <use xlink:href="#ArialMT-35" x="139.013672"/>
      </g>
     </g>
    </g>
    <g id="ytick_5">
     <g id="line2d_16">
      <g>
       <use xlink:href="#mf17f62731b" x="46.80625" y="168.363091" style="stroke: #000000; stroke-width: 0.8"/>
      </g>
     </g>
     <g id="text_17">
      <!-- 1.00 -->
      <g transform="translate(20.345313 171.941997) scale(0.1 -0.1)">
       <defs>
        <path id="ArialMT-31" d="M 2384 0 
L 1822 0 
L 1822 3584 
Q 1619 3391 1289 3197 
Q 959 3003 697 2906 
L 697 3450 
Q 1169 3672 1522 3987 
Q 1875 4303 2022 4600 
L 2384 4600 
L 2384 0 
z
" transform="scale(0.015625)"/>
       </defs>
       <use xlink:href="#ArialMT-31"/>
       <use xlink:href="#ArialMT-2e" x="55.615234"/>
       <use xlink:href="#ArialMT-30" x="83.398438"/>
       <use xlink:href="#ArialMT-30" x="139.013672"/>
      </g>
     </g>
    </g>
    <g id="ytick_6">
     <g id="line2d_17">
      <g>
       <use xlink:href="#mf17f62731b" x="46.80625" y="135.669958" style="stroke: #000000; stroke-width: 0.8"/>
      </g>
     </g>
     <g id="text_18">
      <!-- 1.25 -->
      <g transform="translate(20.345313 139.248864) scale(0.1 -0.1)">
       <use xlink:href="#ArialMT-31"/>
       <use xlink:href="#ArialMT-2e" x="55.615234"/>
       <use xlink:href="#ArialMT-32" x="83.398438"/>
       <use xlink:href="#ArialMT-35" x="139.013672"/>
      </g>
     </g>
    </g>
    <g id="ytick_7">
     <g id="line2d_18">
      <g>
       <use xlink:href="#mf17f62731b" x="46.80625" y="102.976824" style="stroke: #000000; stroke-width: 0.8"/>
      </g>
     </g>
     <g id="text_19">
      <!-- 1.50 -->
      <g transform="translate(20.345313 106.555731) scale(0.1 -0.1)">
       <use xlink:href="#ArialMT-31"/>
       <use xlink:href="#ArialMT-2e" x="55.615234"/>
       <use xlink:href="#ArialMT-35" x="83.398438"/>
       <use xlink:href="#ArialMT-30" x="139.013672"/>
      </g>
     </g>
    </g>
    <g id="ytick_8">
     <g id="line2d_19">
      <g>
       <use xlink:href="#mf17f62731b" x="46.80625" y="70.283691" style="stroke: #000000; stroke-width: 0.8"/>
      </g>
     </g>
     <g id="text_20">
      <!-- 1.75 -->
      <g transform="translate(20.345313 73.862597) scale(0.1 -0.1)">
       <use xlink:href="#ArialMT-31"/>
       <use xlink:href="#ArialMT-2e" x="55.615234"/>
       <use xlink:href="#ArialMT-37" x="83.398438"/>
       <use xlink:href="#ArialMT-35" x="139.013672"/>
      </g>
     </g>
    </g>
    <g id="ytick_9">
     <g id="line2d_20">
      <g>
       <use xlink:href="#mf17f62731b" x="46.80625" y="37.590557" style="stroke: #000000; stroke-width: 0.8"/>
      </g>
     </g>
     <g id="text_21">
      <!-- 2.00 -->
      <g transform="translate(20.345313 41.169464) scale(0.1 -0.1)">
       <use xlink:href="#ArialMT-32"/>
       <use xlink:href="#ArialMT-2e" x="55.615234"/>
       <use xlink:href="#ArialMT-30" x="83.398438"/>
       <use xlink:href="#ArialMT-30" x="139.013672"/>
      </g>
     </g>
    </g>
    <g id="text_22">
     <!-- Fold enrichment -->
     <g transform="translate(14.357813 196.937188) rotate(-90) scale(0.1 -0.1)">
      <defs>
       <path id="ArialMT-46" d="M 525 0 
L 525 4581 
L 3616 4581 
L 3616 4041 
L 1131 4041 
L 1131 2622 
L 3281 2622 
L 3281 2081 
L 1131 2081 
L 1131 0 
L 525 0 
z
" transform="scale(0.015625)"/>
       <path id="ArialMT-64" d="M 2575 0 
L 2575 419 
Q 2259 -75 1647 -75 
Q 1250 -75 917 144 
Q 584 363 401 755 
Q 219 1147 219 1656 
Q 219 2153 384 2558 
Q 550 2963 881 3178 
Q 1213 3394 1622 3394 
Q 1922 3394 2156 3267 
Q 2391 3141 2538 2938 
L 2538 4581 
L 3097 4581 
L 3097 0 
L 2575 0 
z
M 797 1656 
Q 797 1019 1065 703 
Q 1334 388 1700 388 
Q 2069 388 2326 689 
Q 2584 991 2584 1609 
Q 2584 2291 2321 2609 
Q 2059 2928 1675 2928 
Q 1300 2928 1048 2622 
Q 797 2316 797 1656 
z
" transform="scale(0.015625)"/>
      </defs>
      <use xlink:href="#ArialMT-46"/>
      <use xlink:href="#ArialMT-6f" x="61.083984"/>
      <use xlink:href="#ArialMT-6c" x="116.699219"/>
      <use xlink:href="#ArialMT-64" x="138.916016"/>
      <use xlink:href="#ArialMT-20" x="194.53125"/>
      <use xlink:href="#ArialMT-45" x="222.314453"/>
      <use xlink:href="#ArialMT-6e" x="289.013672"/>
      <use xlink:href="#ArialMT-72" x="344.628906"/>
      <use xlink:href="#ArialMT-69" x="377.929688"/>
      <use xlink:href="#ArialMT-63" x="400.146484"/>
      <use xlink:href="#ArialMT-68" x="450.146484"/>
      <use xlink:href="#ArialMT-6d" x="505.761719"/>
      <use xlink:href="#ArialMT-65" x="589.0625"/>
      <use xlink:href="#ArialMT-6e" x="644.677734"/>
      <use xlink:href="#ArialMT-74" x="700.292969"/>
     </g>
    </g>
   </g>
   <g id="line2d_21">
    <path d="M 46.80625 168.363091 
L 493.20625 168.363091 
" clip-path="url(#p5da91c568a)" style="fill: none; stroke-dasharray: 5.55,2.4; stroke-dashoffset: 0; stroke: #808080; stroke-width: 1.5"/>
   </g>
   <g id="LineCollection_1">
    <path d="M 76.759497 267.285099 
L 76.759497 266.548114 
" clip-path="url(#p5da91c568a)" style="fill: none; stroke: #000000; stroke-width: 1.5"/>
    <path d="M 115.408847 222.209939 
L 115.408847 215.544125 
" clip-path="url(#p5da91c568a)" style="fill: none; stroke: #000000; stroke-width: 1.5"/>
    <path d="M 154.058198 256.573179 
L 154.058198 255.253371 
" clip-path="url(#p5da91c568a)" style="fill: none; stroke: #000000; stroke-width: 1.5"/>
    <path d="M 192.707549 269.735947 
L 192.707549 267.089014 
" clip-path="url(#p5da91c568a)" style="fill: none; stroke: #000000; stroke-width: 1.5"/>
    <path d="M 231.356899 275.707424 
L 231.356899 274.60789 
" clip-path="url(#p5da91c568a)" style="fill: none; stroke: #000000; stroke-width: 1.5"/>
    <path d="M 270.00625 49.816293 
L 270.00625 35.135625 
" clip-path="url(#p5da91c568a)" style="fill: none; stroke: #000000; stroke-width: 1.5"/>
    <path d="M 308.655601 173.110023 
L 308.655601 171.449218 
" clip-path="url(#p5da91c568a)" style="fill: none; stroke: #000000; stroke-width: 1.5"/>
    <path d="M 347.304951 248.484826 
L 347.304951 245.959126 
" clip-path="url(#p5da91c568a)" style="fill: none; stroke: #000000; stroke-width: 1.5"/>
    <path d="M 385.954302 265.521282 
L 385.954302 223.820758 
" clip-path="url(#p5da91c568a)" style="fill: none; stroke: #000000; stroke-width: 1.5"/>
    <path d="M 424.603653 199.224803 
L 424.603653 193.084624 
" clip-path="url(#p5da91c568a)" style="fill: none; stroke: #000000; stroke-width: 1.5"/>
    <path d="M 463.253003 268.879342 
L 463.253003 268.404662 
" clip-path="url(#p5da91c568a)" style="fill: none; stroke: #000000; stroke-width: 1.5"/>
   </g>
   <g id="line2d_22">
    <defs>
     <path id="m603dc62d2d" d="M 2 0 
L -2 -0 
" style="stroke: #000000"/>
    </defs>
    <g clip-path="url(#p5da91c568a)">
     <use xlink:href="#m603dc62d2d" x="76.759497" y="267.285099" style="stroke: #000000"/>
     <use xlink:href="#m603dc62d2d" x="115.408847" y="222.209939" style="stroke: #000000"/>
     <use xlink:href="#m603dc62d2d" x="154.058198" y="256.573179" style="stroke: #000000"/>
     <use xlink:href="#m603dc62d2d" x="192.707549" y="269.735947" style="stroke: #000000"/>
     <use xlink:href="#m603dc62d2d" x="231.356899" y="275.707424" style="stroke: #000000"/>
     <use xlink:href="#m603dc62d2d" x="270.00625" y="49.816293" style="stroke: #000000"/>
     <use xlink:href="#m603dc62d2d" x="308.655601" y="173.110023" style="stroke: #000000"/>
     <use xlink:href="#m603dc62d2d" x="347.304951" y="248.484826" style="stroke: #000000"/>
     <use xlink:href="#m603dc62d2d" x="385.954302" y="265.521282" style="stroke: #000000"/>
     <use xlink:href="#m603dc62d2d" x="424.603653" y="199.224803" style="stroke: #000000"/>
     <use xlink:href="#m603dc62d2d" x="463.253003" y="268.879342" style="stroke: #000000"/>
    </g>
   </g>
   <g id="line2d_23">
    <g clip-path="url(#p5da91c568a)">
     <use xlink:href="#m603dc62d2d" x="76.759497" y="266.548114" style="stroke: #000000"/>
     <use xlink:href="#m603dc62d2d" x="115.408847" y="215.544125" style="stroke: #000000"/>
     <use xlink:href="#m603dc62d2d" x="154.058198" y="255.253371" style="stroke: #000000"/>
     <use xlink:href="#m603dc62d2d" x="192.707549" y="267.089014" style="stroke: #000000"/>
     <use xlink:href="#m603dc62d2d" x="231.356899" y="274.60789" style="stroke: #000000"/>
     <use xlink:href="#m603dc62d2d" x="270.00625" y="35.135625" style="stroke: #000000"/>
     <use xlink:href="#m603dc62d2d" x="308.655601" y="171.449218" style="stroke: #000000"/>
     <use xlink:href="#m603dc62d2d" x="347.304951" y="245.959126" style="stroke: #000000"/>
     <use xlink:href="#m603dc62d2d" x="385.954302" y="223.820758" style="stroke: #000000"/>
     <use xlink:href="#m603dc62d2d" x="424.603653" y="193.084624" style="stroke: #000000"/>
     <use xlink:href="#m603dc62d2d" x="463.253003" y="268.404662" style="stroke: #000000"/>
    </g>
   </g>
   <g id="line2d_24">
    <defs>
     <path id="md4a5d47f12" d="M 0 1.5 
C 0.397805 1.5 0.77937 1.341951 1.06066 1.06066 
C 1.341951 0.77937 1.5 0.397805 1.5 0 
C 1.5 -0.397805 1.341951 -0.77937 1.06066 -1.06066 
C 0.77937 -1.341951 0.397805 -1.5 0 -1.5 
C -0.397805 -1.5 -0.77937 -1.341951 -1.06066 -1.06066 
C -1.341951 -0.77937 -1.5 -0.397805 -1.5 0 
C -1.5 0.397805 -1.341951 0.77937 -1.06066 1.06066 
C -0.77937 1.341951 -0.397805 1.5 0 1.5 
z
" style="stroke: #000000"/>
    </defs>
    <g clip-path="url(#p5da91c568a)">
     <use xlink:href="#md4a5d47f12" x="76.759497" y="266.916607" style="stroke: #000000"/>
     <use xlink:href="#md4a5d47f12" x="115.408847" y="218.877032" style="stroke: #000000"/>
     <use xlink:href="#md4a5d47f12" x="154.058198" y="255.913275" style="stroke: #000000"/>
     <use xlink:href="#md4a5d47f12" x="192.707549" y="268.412481" style="stroke: #000000"/>
     <use xlink:href="#md4a5d47f12" x="231.356899" y="275.157657" style="stroke: #000000"/>
     <use xlink:href="#md4a5d47f12" x="270.00625" y="42.475959" style="stroke: #000000"/>
     <use xlink:href="#md4a5d47f12" x="308.655601" y="172.279621" style="stroke: #000000"/>
     <use xlink:href="#md4a5d47f12" x="347.304951" y="247.221976" style="stroke: #000000"/>
     <use xlink:href="#md4a5d47f12" x="385.954302" y="244.67102" style="stroke: #000000"/>
     <use xlink:href="#md4a5d47f12" x="424.603653" y="196.154713" style="stroke: #000000"/>
     <use xlink:href="#md4a5d47f12" x="463.253003" y="268.642002" style="stroke: #000000"/>
    </g>
   </g>
   <g id="patch_14">
    <path d="M 46.80625 299.135625 
L 46.80625 21.935625 
" style="fill: none; stroke: #000000; stroke-width: 0.8; stroke-linejoin: miter; stroke-linecap: square"/>
   </g>
   <g id="patch_15">
    <path d="M 493.20625 299.135625 
L 493.20625 21.935625 
" style="fill: none; stroke: #000000; stroke-width: 0.8; stroke-linejoin: miter; stroke-linecap: square"/>
   </g>
   <g id="patch_16">
    <path d="M 46.80625 299.135625 
L 493.20625 299.135625 
" style="fill: none; stroke: #000000; stroke-width: 0.8; stroke-linejoin: miter; stroke-linecap: square"/>
   </g>
   <g id="patch_17">
    <path d="M 46.80625 21.935625 
L 493.20625 21.935625 
" style="fill: none; stroke: #000000; stroke-width: 0.8; stroke-linejoin: miter; stroke-linecap: square"/>
   </g>
   <g id="text_23">
    <!-- Fold enrichment above random of C. elegans G4 CUT&Tag N2 L1s, 5 replicates of shuffle -->
    <g transform="translate(178.635625 15.935625) scale(0.12 -0.12)">
     <defs>
      <path id="ArialMT-61" d="M 2588 409 
Q 2275 144 1986 34 
Q 1697 -75 1366 -75 
Q 819 -75 525 192 
Q 231 459 231 875 
Q 231 1119 342 1320 
Q 453 1522 633 1644 
Q 813 1766 1038 1828 
Q 1203 1872 1538 1913 
Q 2219 1994 2541 2106 
Q 2544 2222 2544 2253 
Q 2544 2597 2384 2738 
Q 2169 2928 1744 2928 
Q 1347 2928 1158 2789 
Q 969 2650 878 2297 
L 328 2372 
Q 403 2725 575 2942 
Q 747 3159 1072 3276 
Q 1397 3394 1825 3394 
Q 2250 3394 2515 3294 
Q 2781 3194 2906 3042 
Q 3031 2891 3081 2659 
Q 3109 2516 3109 2141 
L 3109 1391 
Q 3109 606 3145 398 
Q 3181 191 3288 0 
L 2700 0 
Q 2613 175 2588 409 
z
M 2541 1666 
Q 2234 1541 1622 1453 
Q 1275 1403 1131 1340 
Q 988 1278 909 1158 
Q 831 1038 831 891 
Q 831 666 1001 516 
Q 1172 366 1500 366 
Q 1825 366 2078 508 
Q 2331 650 2450 897 
Q 2541 1088 2541 1459 
L 2541 1666 
z
" transform="scale(0.015625)"/>
      <path id="ArialMT-73" d="M 197 991 
L 753 1078 
Q 800 744 1014 566 
Q 1228 388 1613 388 
Q 2000 388 2187 545 
Q 2375 703 2375 916 
Q 2375 1106 2209 1216 
Q 2094 1291 1634 1406 
Q 1016 1563 777 1677 
Q 538 1791 414 1992 
Q 291 2194 291 2438 
Q 291 2659 392 2848 
Q 494 3038 669 3163 
Q 800 3259 1026 3326 
Q 1253 3394 1513 3394 
Q 1903 3394 2198 3281 
Q 2494 3169 2634 2976 
Q 2775 2784 2828 2463 
L 2278 2388 
Q 2241 2644 2061 2787 
Q 1881 2931 1553 2931 
Q 1166 2931 1000 2803 
Q 834 2675 834 2503 
Q 834 2394 903 2306 
Q 972 2216 1119 2156 
Q 1203 2125 1616 2013 
Q 2213 1853 2448 1751 
Q 2684 1650 2818 1456 
Q 2953 1263 2953 975 
Q 2953 694 2789 445 
Q 2625 197 2315 61 
Q 2006 -75 1616 -75 
Q 969 -75 630 194 
Q 291 463 197 991 
z
" transform="scale(0.015625)"/>
      <path id="ArialMT-28" d="M 1497 -1347 
Q 1031 -759 709 28 
Q 388 816 388 1659 
Q 388 2403 628 3084 
Q 909 3875 1497 4659 
L 1900 4659 
Q 1522 4009 1400 3731 
Q 1209 3300 1100 2831 
Q 966 2247 966 1656 
Q 966 153 1900 -1347 
L 1497 -1347 
z
" transform="scale(0.015625)"/>
      <path id="ArialMT-4c" d="M 469 0 
L 469 4581 
L 1075 4581 
L 1075 541 
L 3331 541 
L 3331 0 
L 469 0 
z
" transform="scale(0.015625)"/>
      <path id="ArialMT-29" d="M 791 -1347 
L 388 -1347 
Q 1322 153 1322 1656 
Q 1322 2244 1188 2822 
Q 1081 3291 891 3722 
Q 769 4003 388 4659 
L 791 4659 
Q 1378 3875 1659 3084 
Q 1900 2403 1900 1659 
Q 1900 816 1576 28 
Q 1253 -759 791 -1347 
z
" transform="scale(0.015625)"/>
     </defs>
     <use xlink:href="#ArialMT-46"/>
     <use xlink:href="#ArialMT-6f" x="61.083984"/>
     <use xlink:href="#ArialMT-6c" x="116.699219"/>
     <use xlink:href="#ArialMT-64" x="138.916016"/>
     <use xlink:href="#ArialMT-20" x="194.53125"/>
     <use xlink:href="#ArialMT-45" x="222.314453"/>
     <use xlink:href="#ArialMT-6e" x="289.013672"/>
     <use xlink:href="#ArialMT-72" x="344.628906"/>
     <use xlink:href="#ArialMT-69" x="377.929688"/>
     <use xlink:href="#ArialMT-63" x="400.146484"/>
     <use xlink:href="#ArialMT-68" x="450.146484"/>
     <use xlink:href="#ArialMT-6d" x="505.761719"/>
     <use xlink:href="#ArialMT-65" x="589.0625"/>
     <use xlink:href="#ArialMT-6e" x="644.677734"/>
     <use xlink:href="#ArialMT-74" x="700.292969"/>
     <use xlink:href="#ArialMT-20" x="728.076172"/>
     <use xlink:href="#ArialMT-6f" x="755.859375"/>
     <use xlink:href="#ArialMT-66" x="811.474609"/>
     <use xlink:href="#ArialMT-20" x="839.257812"/>
     <use xlink:href="#ArialMT-43" x="867.041016"/>
     <use xlink:href="#ArialMT-2e" x="939.257812"/>
     <use xlink:href="#ArialMT-65" x="967.041016"/>
     <use xlink:href="#ArialMT-6c" x="1022.65625"/>
     <use xlink:href="#ArialMT-65" x="1044.873047"/>
     <use xlink:href="#ArialMT-67" x="1100.488281"/>
     <use xlink:href="#ArialMT-61" x="1156.103516"/>
     <use xlink:href="#ArialMT-6e" x="1211.71875"/>
     <use xlink:href="#ArialMT-73" x="1267.333984"/>
     <use xlink:href="#ArialMT-20" x="1317.333984"/>
     <use xlink:href="#ArialMT-28" x="1345.117188"/>
     <use xlink:href="#ArialMT-4c" x="1378.417969"/>
     <use xlink:href="#ArialMT-31" x="1434.033203"/>
     <use xlink:href="#ArialMT-29" x="1489.648438"/>
    </g>
   </g>
  </g>
 </g>
 <defs>
  <clipPath id="p5da91c568a">
   <rect x="46.80625" y="21.935625" width="446.4" height="277.2"/>
  </clipPath>
 </defs>
</svg>
